<svg width="22" height="18" viewBox="0 0 22 18" fill="none" xmlns="http://www.w3.org/2000/svg">
<path d="M12 15C12 15.34 12.04 15.67 12.09 16H5.5C4 16 2.69 15.5 1.61 14.43C0.54 13.38 0 12.09 0 10.58C0 9.28 0.39 8.12 1.17 7.1C1.95 6.08 3 5.43 4.25 5.15C4.67 3.62 5.5 2.38 6.75 1.43C8 0.48 9.42 0 11 0C12.95 0 14.6 0.68 15.96 2.04C17.32 3.4 18 5.05 18 7C19.15 7.13 20.1 7.63 20.86 8.5C21.37 9.07 21.7 9.71 21.86 10.42C20.82 9.54 19.5 9 18 9C14.69 9 12 11.69 12 15ZM15 14H17V18H19V14H21L18 11L15 14Z" fill="white"/>
</svg>
