<svg width="28" height="28" viewBox="0 0 28 28" fill="none" xmlns="http://www.w3.org/2000/svg">
<path d="M10.9374 12.7345C11.0705 12.6577 11.1809 12.5472 11.2577 12.4142C11.3345 12.2811 11.375 12.1302 11.3749 11.9766V4.10156C11.3741 3.96206 11.34 3.82477 11.2754 3.70113C11.2108 3.5775 11.1175 3.47111 11.0034 3.39083C10.8893 3.31056 10.7577 3.25873 10.6195 3.23967C10.4813 3.22061 10.3405 3.23486 10.209 3.28125C7.65505 4.18514 5.5073 5.97039 4.15181 8.31608C2.79632 10.6618 2.32201 13.414 2.81413 16.0781C2.83964 16.2159 2.89786 16.3455 2.98389 16.4561C3.06992 16.5667 3.18125 16.655 3.30851 16.7136C3.4232 16.7672 3.54831 16.7949 3.67492 16.7945C3.82849 16.7946 3.97938 16.7542 4.11242 16.6775L10.9374 12.7345ZM9.62492 5.42719V11.4712L4.38804 14.4933C4.37492 14.3281 4.37492 14.1619 4.37492 14C4.37647 12.2263 4.86742 10.4875 5.79372 8.97492C6.72002 7.46235 8.04574 6.23472 9.62492 5.42719ZM25.3749 14C25.3758 16.4972 24.5549 18.9252 23.0389 20.9096C21.5229 22.8939 19.396 24.3242 16.9865 24.9799C14.5769 25.6355 12.0185 25.48 9.7061 24.5374C7.39368 23.5948 5.45569 21.9174 4.19117 19.7641C4.13222 19.6646 4.09357 19.5544 4.07744 19.44C4.06132 19.3255 4.06805 19.2089 4.09724 19.097C4.12643 18.9852 4.1775 18.8802 4.2475 18.7882C4.3175 18.6962 4.40505 18.6189 4.50507 18.5609L13.1249 13.5439V3.5C13.1249 3.26794 13.2171 3.04538 13.3812 2.88128C13.5453 2.71719 13.7679 2.625 13.9999 2.625C15.9849 2.62601 17.9352 3.14621 19.657 4.13394C21.3788 5.12168 22.8123 6.5426 23.8152 8.25563C23.8273 8.27313 23.8382 8.29063 23.8491 8.30922C23.8601 8.32781 23.871 8.34969 23.8809 8.36937C24.8623 10.0835 25.3774 12.0248 25.3749 14Z" fill="white"/>
</svg>
